<svg width="370" height="120" xmlns="http://www.w3.org/2000/svg">
  <path d="M10 20 H70 L90 50 V110 H10 z" fill="whitesmoke" stroke="red" stroke-width="3" />
  <path d="M70 20 V50 H90" fill="none" stroke="red" stroke-width="3" />
  
  <path d="M16 80 L84 80 V104 H16 z" fill="none" stroke="red" stroke-width="3" />
  <path d="M20 85 H40 z" fill="none" stroke="red" stroke-width="3" />
  <path d="M50,30 a1,1 0 1,1 0,19.5 a1,1 0 1,1 0,-19.5 M50,49.5 c-10,0 -10,3 -10,30 M50,49.5 c 10,0  10,3  10,30 M -15,30 z" fill="none" stroke="red" stroke-width="3" />

  <path transform="translate(-65, -230) scale(6)" fill="black" d="M30.88 53.98L27.60 53.98L27.60 42.61L30.96 42.61Q32.47 42.61 33.64 43.28Q34.80 43.95 35.45 45.18Q36.09 46.42 36.09 48.01L36.09 48.01L36.09 48.58Q36.09 50.20 35.44 51.43Q34.80 52.65 33.61 53.32Q32.41 53.98 30.88 53.98L30.88 53.98ZM30.96 44.20L29.58 44.20L29.58 52.40L30.87 52.40Q32.42 52.40 33.25 51.43Q34.09 50.46 34.10 48.64L34.10 48.64L34.10 48.00Q34.10 46.15 33.30 45.18Q32.49 44.20 30.96 44.20L30.96 44.20ZM41.59 54.14L41.59 54.14Q39.79 54.14 38.67 53Q37.55 51.86 37.55 49.97L37.55 49.97L37.55 49.74Q37.55 48.47 38.04 47.48Q38.52 46.48 39.41 45.93Q40.29 45.37 41.38 45.37L41.38 45.37Q43.10 45.37 44.04 46.47Q44.98 47.57 44.98 49.59L44.98 49.59L44.98 50.36L39.46 50.36Q39.55 51.40 40.16 52.01Q40.77 52.62 41.70 52.62L41.70 52.62Q43.01 52.62 43.83 51.57L43.83 51.57L44.85 52.54Q44.34 53.30 43.50 53.72Q42.65 54.14 41.59 54.14ZM41.37 46.89L41.37 46.89Q40.59 46.89 40.11 47.44Q39.63 47.99 39.49 48.96L39.49 48.96L43.11 48.96L43.11 48.82Q43.05 47.87 42.60 47.38Q42.16 46.89 41.37 46.89ZM46.43 45.53L48.22 45.53L48.27 46.50Q49.21 45.37 50.73 45.37L50.73 45.37Q53.38 45.37 53.42 48.39L53.42 48.39L53.42 53.98L51.52 53.98L51.52 48.50Q51.52 47.70 51.18 47.31Q50.83 46.93 50.04 46.93L50.04 46.93Q48.89 46.93 48.33 47.96L48.33 47.96L48.33 53.98L46.43 53.98L46.43 45.53ZM59.87 49.75L57.52 49.75L57.52 53.98L55.54 53.98L55.54 42.61L59.89 42.61Q61.80 42.61 62.92 43.60Q64.04 44.59 64.04 46.22L64.04 46.22Q64.04 47.89 62.94 48.82Q61.84 49.75 59.87 49.75L59.87 49.75ZM57.52 44.20L57.52 48.17L59.89 48.17Q60.95 48.17 61.50 47.67Q62.05 47.18 62.05 46.24L62.05 46.24Q62.05 45.32 61.49 44.77Q60.93 44.21 59.95 44.20L59.95 44.20L57.52 44.20ZM66.87 45.53L68.66 51.26L70.38 45.53L72.40 45.53L69.04 55.26Q68.27 57.39 66.41 57.39L66.41 57.39Q66 57.39 65.50 57.25L65.50 57.25L65.50 55.79L65.86 55.81Q66.58 55.81 66.94 55.55Q67.30 55.29 67.52 54.67L67.52 54.67L67.79 53.94L64.82 45.53L66.87 45.53Z"></path>
</svg>